<svg width="26" height="26" viewBox="0 0 26 26" fill="none" xmlns="http://www.w3.org/2000/svg">
<path d="M3.25 3.25C3.25 2.38805 3.59241 1.5614 4.2019 0.951903C4.8114 0.34241 5.63805 0 6.5 0L19.5 0C20.362 0 21.1886 0.34241 21.7981 0.951903C22.4076 1.5614 22.75 2.38805 22.75 3.25V25.1875C22.7499 25.3345 22.71 25.4787 22.6344 25.6047C22.5589 25.7308 22.4506 25.834 22.321 25.9034C22.1914 25.9727 22.0455 26.0057 21.8987 25.9987C21.7519 25.9916 21.6097 25.9449 21.4874 25.8635L13 21.2891L4.51262 25.8635C4.39027 25.9449 4.24812 25.9916 4.10132 25.9987C3.95452 26.0057 3.80857 25.9727 3.679 25.9034C3.54943 25.834 3.44111 25.7308 3.36556 25.6047C3.29001 25.4787 3.25008 25.3345 3.25 25.1875V3.25ZM6.5 1.625C6.06902 1.625 5.6557 1.7962 5.35095 2.10095C5.0462 2.4057 4.875 2.81902 4.875 3.25V23.6697L12.5499 19.6365C12.6832 19.5478 12.8398 19.5004 13 19.5004C13.1602 19.5004 13.3168 19.5478 13.4501 19.6365L21.125 23.6697V3.25C21.125 2.81902 20.9538 2.4057 20.649 2.10095C20.3443 1.7962 19.931 1.625 19.5 1.625H6.5Z" fill="#0B0B0C"/>
</svg>
