<svg width="37" height="37" viewBox="0 0 37 37" fill="none" xmlns="http://www.w3.org/2000/svg">
<path d="M19.4019 29.2485C19.3808 29.3863 19.3692 29.5254 19.3672 29.6647C19.3672 30.3701 19.8528 30.8395 20.5234 30.8395C21.1386 30.8395 21.6612 30.4417 21.8069 29.7364L23.088 23.4858H25.8722C26.8458 23.4858 27.2991 22.9446 27.2991 22.2208C27.2991 21.4993 26.8643 20.9952 25.8722 20.9952H23.5944L24.7877 15.1584H27.713C28.7074 15.1584 29.1421 14.6335 29.1421 13.8935C29.1421 13.1697 28.7074 12.6817 27.713 12.6817H25.2941L26.3949 7.35375C26.417 7.22848 26.4294 7.10168 26.4319 6.9745C26.4337 6.81728 26.4041 6.66128 26.3448 6.51567C26.2855 6.37006 26.1977 6.23777 26.0865 6.1266C25.9754 6.01542 25.8431 5.9276 25.6975 5.86829C25.5518 5.80898 25.3958 5.77939 25.2386 5.78125C24.9475 5.77569 24.6636 5.87203 24.436 6.0536C24.2084 6.23517 24.0514 6.49057 23.9922 6.77562L22.7828 12.6817H17.6143L18.7174 7.35375C18.7359 7.26125 18.7521 7.08087 18.7521 6.9745C18.7533 6.81607 18.7228 6.659 18.6623 6.51259C18.6017 6.36618 18.5124 6.23341 18.3997 6.12214C18.2869 6.01087 18.1529 5.92336 18.0057 5.86481C17.8585 5.80625 17.701 5.77784 17.5426 5.78125C17.2546 5.77957 16.9748 5.87772 16.751 6.05901C16.5271 6.24029 16.3729 6.49352 16.3147 6.77562L15.1006 12.6817H12.5199C11.5255 12.6817 11.0931 13.1905 11.0931 13.912C11.0931 14.6335 11.5255 15.1584 12.5199 15.1584H14.615L13.4241 20.9929H10.6583C9.68475 20.9929 9.25 21.4993 9.25 22.2208C9.25 22.9446 9.68475 23.4858 10.6606 23.4858H12.9176L11.7244 29.2485C11.7059 29.341 11.6897 29.5376 11.6897 29.6647C11.6897 30.3701 12.1753 30.8395 12.8459 30.8395C13.4587 30.8395 13.9837 30.4417 14.1271 29.7364L15.4105 23.4858H20.5951L19.4042 29.2485H19.4019ZM17.0894 15.1214H22.3295L21.1386 21.0484H15.8614L17.0917 15.1214H17.0894Z" fill="black"/>
</svg>
