<svg width="30" height="30" viewBox="0 0 30 30" fill="none" xmlns="http://www.w3.org/2000/svg">
<path d="M1.24973 14.7503H2.49973V23.5003C2.49973 24.879 3.62098 26.0003 4.99973 26.0003H19.9997C21.3785 26.0003 22.4997 24.879 22.4997 23.5003V14.7503H23.7497C23.9969 14.7502 24.2385 14.6769 24.4441 14.5395C24.6496 14.4021 24.8097 14.2069 24.9043 13.9786C24.9989 13.7502 25.0237 13.4989 24.9755 13.2565C24.9273 13.014 24.8082 12.7913 24.6335 12.6165L13.3835 1.3665C13.2675 1.25032 13.1297 1.15815 12.9781 1.09526C12.8265 1.03237 12.6639 1 12.4997 1C12.3356 1 12.173 1.03237 12.0214 1.09526C11.8697 1.15815 11.732 1.25032 11.616 1.3665L0.365984 12.6165C0.191222 12.7913 0.0722138 13.014 0.0240044 13.2565C-0.0242051 13.4989 0.000548689 13.7502 0.0951362 13.9786C0.189724 14.2069 0.349898 14.4021 0.55541 14.5395C0.760923 14.6769 1.00255 14.7502 1.24973 14.7503ZM12.4997 4.01775L19.9997 11.5178V17.2503L20.001 23.5003H4.99973V11.519L12.4997 4.01775V4.01775Z" fill="#0C0D0D"/>
<path d="M21.5 12L12.5 2.5L3.5 12V24.5H21.5V12Z" fill="#121111"/>
<path d="M12.4998 19.7502C15.2573 19.7502 17.4998 17.5077 17.4998 14.7502C17.4998 11.9927 15.2573 9.75024 12.4998 9.75024C9.74226 9.75024 7.49976 11.9927 7.49976 14.7502C7.49976 17.5077 9.74226 19.7502 12.4998 19.7502Z" fill="#F6F9FB"/>
</svg>
