<svg width="21" height="29" viewBox="0 0 21 29" fill="none" xmlns="http://www.w3.org/2000/svg">
<path d="M19.0312 2.41667C19.2053 2.41667 19.3722 2.54397 19.4953 2.77058C19.6184 2.99719 19.6875 3.30453 19.6875 3.625V25.375C19.6875 25.6955 19.6184 26.0028 19.4953 26.2294C19.3722 26.456 19.2053 26.5833 19.0312 26.5833H1.96875C1.7947 26.5833 1.62778 26.456 1.50471 26.2294C1.38164 26.0028 1.3125 25.6955 1.3125 25.375V3.625C1.3125 3.30453 1.38164 2.99719 1.50471 2.77058C1.62778 2.54397 1.7947 2.41667 1.96875 2.41667H19.0312ZM1.96875 0C1.44661 0 0.945846 0.381919 0.576634 1.06174C0.207421 1.74156 0 2.66359 0 3.625L0 25.375C0 26.3364 0.207421 27.2584 0.576634 27.9383C0.945846 28.6181 1.44661 29 1.96875 29H19.0312C19.5534 29 20.0542 28.6181 20.4234 27.9383C20.7926 27.2584 21 26.3364 21 25.375V3.625C21 2.66359 20.7926 1.74156 20.4234 1.06174C20.0542 0.381919 19.5534 0 19.0312 0H1.96875Z" fill="black"/>
<path d="M6.5625 14.5C6.5625 14.1795 6.63164 13.8722 6.75471 13.6456C6.87778 13.419 7.0447 13.2917 7.21875 13.2917H16.4062C16.5803 13.2917 16.7472 13.419 16.8703 13.6456C16.9934 13.8722 17.0625 14.1795 17.0625 14.5C17.0625 14.8205 16.9934 15.1278 16.8703 15.3544C16.7472 15.581 16.5803 15.7083 16.4062 15.7083H7.21875C7.0447 15.7083 6.87778 15.581 6.75471 15.3544C6.63164 15.1278 6.5625 14.8205 6.5625 14.5ZM6.5625 8.45833C6.5625 8.13786 6.63164 7.83052 6.75471 7.60391C6.87778 7.37731 7.0447 7.25 7.21875 7.25H16.4062C16.5803 7.25 16.7472 7.37731 16.8703 7.60391C16.9934 7.83052 17.0625 8.13786 17.0625 8.45833C17.0625 8.7788 16.9934 9.08615 16.8703 9.31275C16.7472 9.53936 16.5803 9.66667 16.4062 9.66667H7.21875C7.0447 9.66667 6.87778 9.53936 6.75471 9.31275C6.63164 9.08615 6.5625 8.7788 6.5625 8.45833ZM6.5625 20.5417C6.5625 20.2212 6.63164 19.9139 6.75471 19.6872C6.87778 19.4606 7.0447 19.3333 7.21875 19.3333H16.4062C16.5803 19.3333 16.7472 19.4606 16.8703 19.6872C16.9934 19.9139 17.0625 20.2212 17.0625 20.5417C17.0625 20.8621 16.9934 21.1695 16.8703 21.3961C16.7472 21.6227 16.5803 21.75 16.4062 21.75H7.21875C7.0447 21.75 6.87778 21.6227 6.75471 21.3961C6.63164 21.1695 6.5625 20.8621 6.5625 20.5417ZM5.25 8.45833C5.25 8.7788 5.18086 9.08615 5.05779 9.31275C4.93472 9.53936 4.7678 9.66667 4.59375 9.66667C4.4197 9.66667 4.25278 9.53936 4.12971 9.31275C4.00664 9.08615 3.9375 8.7788 3.9375 8.45833C3.9375 8.13786 4.00664 7.83052 4.12971 7.60391C4.25278 7.37731 4.4197 7.25 4.59375 7.25C4.7678 7.25 4.93472 7.37731 5.05779 7.60391C5.18086 7.83052 5.25 8.13786 5.25 8.45833V8.45833ZM5.25 14.5C5.25 14.8205 5.18086 15.1278 5.05779 15.3544C4.93472 15.581 4.7678 15.7083 4.59375 15.7083C4.4197 15.7083 4.25278 15.581 4.12971 15.3544C4.00664 15.1278 3.9375 14.8205 3.9375 14.5C3.9375 14.1795 4.00664 13.8722 4.12971 13.6456C4.25278 13.419 4.4197 13.2917 4.59375 13.2917C4.7678 13.2917 4.93472 13.419 5.05779 13.6456C5.18086 13.8722 5.25 14.1795 5.25 14.5V14.5ZM5.25 20.5417C5.25 20.8621 5.18086 21.1695 5.05779 21.3961C4.93472 21.6227 4.7678 21.75 4.59375 21.75C4.4197 21.75 4.25278 21.6227 4.12971 21.3961C4.00664 21.1695 3.9375 20.8621 3.9375 20.5417C3.9375 20.2212 4.00664 19.9139 4.12971 19.6872C4.25278 19.4606 4.4197 19.3333 4.59375 19.3333C4.7678 19.3333 4.93472 19.4606 5.05779 19.6872C5.18086 19.9139 5.25 20.2212 5.25 20.5417V20.5417Z" fill="black"/>
</svg>
