<svg width="29" height="29" viewBox="0 0 29 29" fill="none" xmlns="http://www.w3.org/2000/svg">
<path d="M9.0625 14.5C9.0625 14.9807 8.87154 15.4417 8.53163 15.7816C8.19172 16.1215 7.7307 16.3125 7.25 16.3125C6.7693 16.3125 6.30828 16.1215 5.96837 15.7816C5.62846 15.4417 5.4375 14.9807 5.4375 14.5C5.4375 14.0193 5.62846 13.5583 5.96837 13.2184C6.30828 12.8785 6.7693 12.6875 7.25 12.6875C7.7307 12.6875 8.19172 12.8785 8.53163 13.2184C8.87154 13.5583 9.0625 14.0193 9.0625 14.5V14.5Z" fill="black"/>
<path d="M16.3125 14.5C16.3125 14.9807 16.1215 15.4417 15.7816 15.7816C15.4417 16.1215 14.9807 16.3125 14.5 16.3125C14.0193 16.3125 13.5583 16.1215 13.2184 15.7816C12.8785 15.4417 12.6875 14.9807 12.6875 14.5C12.6875 14.0193 12.8785 13.5583 13.2184 13.2184C13.5583 12.8785 14.0193 12.6875 14.5 12.6875C14.9807 12.6875 15.4417 12.8785 15.7816 13.2184C16.1215 13.5583 16.3125 14.0193 16.3125 14.5V14.5Z" fill="black"/>
<path d="M23.5625 14.5C23.5625 14.9807 23.3715 15.4417 23.0316 15.7816C22.6917 16.1215 22.2307 16.3125 21.75 16.3125C21.2693 16.3125 20.8083 16.1215 20.4684 15.7816C20.1285 15.4417 19.9375 14.9807 19.9375 14.5C19.9375 14.0193 20.1285 13.5583 20.4684 13.2184C20.8083 12.8785 21.2693 12.6875 21.75 12.6875C22.2307 12.6875 22.6917 12.8785 23.0316 13.2184C23.3715 13.5583 23.5625 14.0193 23.5625 14.5V14.5Z" fill="black"/>
<path d="M14.5 0C10.6544 0 6.96623 1.52767 4.24695 4.24695C1.52767 6.96623 0 10.6544 0 14.5C0 18.3456 1.52767 22.0338 4.24695 24.753C6.96623 27.4723 10.6544 29 14.5 29C18.3456 29 22.0338 27.4723 24.753 24.753C27.4723 22.0338 29 18.3456 29 14.5C29 10.6544 27.4723 6.96623 24.753 4.24695C22.0338 1.52767 18.3456 0 14.5 0V0ZM1.8125 14.5C1.8125 12.8339 2.14067 11.184 2.77828 9.6447C3.41589 8.10539 4.35044 6.70673 5.52858 5.52858C6.70673 4.35044 8.10539 3.41588 9.6447 2.77828C11.184 2.14067 12.8339 1.8125 14.5 1.8125C16.1661 1.8125 17.816 2.14067 19.3553 2.77828C20.8946 3.41588 22.2933 4.35044 23.4714 5.52858C24.6496 6.70673 25.5841 8.10539 26.2217 9.6447C26.8593 11.184 27.1875 12.8339 27.1875 14.5C27.1875 17.8649 25.8508 21.092 23.4714 23.4714C21.092 25.8508 17.8649 27.1875 14.5 27.1875C11.1351 27.1875 7.90795 25.8508 5.52858 23.4714C3.14921 21.092 1.8125 17.8649 1.8125 14.5Z" fill="black"/>
</svg>
