<svg width="34" height="42" viewBox="0 0 34 42" fill="none" xmlns="http://www.w3.org/2000/svg">
<path d="M7.08334 8.75H25.5C26.6272 8.75 27.7082 9.30312 28.5052 10.2877C29.3022 11.2723 29.75 12.6076 29.75 14V29.75C29.75 31.1424 29.3022 32.4777 28.5052 33.4623C27.7082 34.4469 26.6272 35 25.5 35H7.08334C5.95617 35 4.87516 34.4469 4.07813 33.4623C3.2811 32.4777 2.83334 31.1424 2.83334 29.75V14C2.83334 12.6076 3.2811 11.2723 4.07813 10.2877C4.87516 9.30312 5.95617 8.75 7.08334 8.75ZM7.08334 10.5C6.392 10.5 5.75734 10.8063 5.26575 11.3155L16.2917 20.16L27.3176 11.3155C26.8084 10.7877 26.1647 10.4989 25.5 10.5H7.08334ZM16.2917 22.246L4.43984 12.74C4.31416 13.1419 4.2498 13.5691 4.25 14V29.75C4.25 30.6783 4.54851 31.5685 5.07987 32.2249C5.61122 32.8812 6.33189 33.25 7.08334 33.25H25.5C26.2514 33.25 26.9721 32.8812 27.5035 32.2249C28.0348 31.5685 28.3333 30.6783 28.3333 29.75V14C28.3333 13.5555 28.2668 13.1303 28.1435 12.74L16.2917 22.2443V22.246Z" fill="black"/>
</svg>
