<svg width="34" height="34" viewBox="0 0 34 34" fill="none" xmlns="http://www.w3.org/2000/svg">
<path fill-rule="evenodd" clip-rule="evenodd" d="M9.18762 26.1069C15.0059 25.2569 19.0119 25.33 24.8378 26.1367C25.2597 26.1978 25.6453 26.4096 25.9232 26.7328C26.2012 27.0561 26.3527 27.469 26.35 27.8953C26.35 28.3033 26.2097 28.6994 25.9564 29.0088C25.5149 29.5482 25.0626 30.0787 24.5998 30.6H26.8447C26.9858 30.4317 27.1277 30.26 27.2714 30.0858C27.7756 29.4675 28.0506 28.6939 28.05 27.8962C28.05 26.1749 26.7937 24.6917 25.0707 24.4537C19.1071 23.6283 14.9387 23.5493 8.94197 24.4256C7.20117 24.6798 5.94997 26.186 5.94997 27.9191C5.94997 28.6884 6.20072 29.4491 6.67587 30.0653C6.81612 30.2472 6.95467 30.4257 7.09237 30.6008H9.28282C8.85223 30.0853 8.43225 29.5611 8.02312 29.0284C7.77999 28.7095 7.64883 28.3193 7.64997 27.9183C7.64997 27.0028 8.30787 26.2353 9.18762 26.1069Z" fill="black"/>
<path fill-rule="evenodd" clip-rule="evenodd" d="M17 17.85C17.6697 17.85 18.3329 17.7181 18.9517 17.4618C19.5704 17.2055 20.1326 16.8298 20.6062 16.3562C21.0798 15.8827 21.4555 15.3204 21.7118 14.7017C21.9681 14.0829 22.1 13.4197 22.1 12.75C22.1 12.0803 21.9681 11.4171 21.7118 10.7983C21.4555 10.1796 21.0798 9.61733 20.6062 9.14375C20.1326 8.67017 19.5704 8.29451 18.9517 8.03821C18.3329 7.78191 17.6697 7.65 17 7.65C15.6474 7.65 14.3502 8.18732 13.3937 9.14375C12.4373 10.1002 11.9 11.3974 11.9 12.75C11.9 14.1026 12.4373 15.3998 13.3937 16.3562C14.3502 17.3127 15.6474 17.85 17 17.85V17.85ZM17 19.55C18.8035 19.55 20.5331 18.8336 21.8083 17.5583C23.0836 16.2831 23.8 14.5535 23.8 12.75C23.8 10.9465 23.0836 9.21692 21.8083 7.94167C20.5331 6.66642 18.8035 5.95 17 5.95C15.1965 5.95 13.4669 6.66642 12.1917 7.94167C10.9164 9.21692 10.2 10.9465 10.2 12.75C10.2 14.5535 10.9164 16.2831 12.1917 17.5583C13.4669 18.8336 15.1965 19.55 17 19.55V19.55Z" fill="black"/>
<path fill-rule="evenodd" clip-rule="evenodd" d="M17 32.3C25.4499 32.3 32.3 25.4499 32.3 17C32.3 8.55015 25.4499 1.7 17 1.7C8.55015 1.7 1.7 8.55015 1.7 17C1.7 25.4499 8.55015 32.3 17 32.3ZM17 34C26.3891 34 34 26.3891 34 17C34 7.6109 26.3891 0 17 0C7.6109 0 0 7.6109 0 17C0 26.3891 7.6109 34 17 34Z" fill="black"/>
</svg>
