<svg width="24" height="24" viewBox="0 0 24 24" fill="none" xmlns="http://www.w3.org/2000/svg">
<g clip-path="url(#clip0_40_1151)">
<path d="M15 18L11.4584 14.4521L15 18ZM13.4211 9.71053C13.4211 11.4903 12.7141 13.1971 11.4556 14.4556C10.1971 15.7141 8.49027 16.4211 6.71053 16.4211C4.93078 16.4211 3.22394 15.7141 1.96547 14.4556C0.707 13.1971 0 11.4903 0 9.71053C0 7.93078 0.707 6.22394 1.96547 4.96547C3.22394 3.707 4.93078 3 6.71053 3C8.49027 3 10.1971 3.707 11.4556 4.96547C12.7141 6.22394 13.4211 7.93078 13.4211 9.71053V9.71053Z" stroke="#C4C4C4" stroke-width="2" stroke-linecap="round"/>
</g>
<defs>
<clipPath id="clip0_40_1151">
<rect width="24" height="24" fill="white"/>
</clipPath>
</defs>
</svg>
